<svg width="64" height="64" viewBox="0 0 64 64" fill="none" xmlns="http://www.w3.org/2000/svg">
  <!-- Base du gâteau -->
  <rect x="10" y="38" width="44" height="20" rx="4" stroke="#4F46E5" stroke-width="3" fill="#EEF2FF"/>
  
  <!-- Étage du milieu -->
  <rect x="14" y="28" width="36" height="16" rx="3" stroke="#4F46E5" stroke-width="2" fill="#E0E7FF"/>
  
  <!-- Étage du haut -->
  <rect x="18" y="20" width="28" height="14" rx="2" stroke="#4F46E5" stroke-width="2" fill="#F8FAFF"/>
  
  <!-- Bougies -->
  <rect x="24" y="12" width="2" height="10" fill="#4F46E5"/>
  <rect x="31" y="10" width="2" height="12" fill="#4F46E5"/>
  <rect x="38" y="12" width="2" height="10" fill="#4F46E5"/>
  
  <!-- Flammes des bougies -->
  <ellipse cx="25" cy="10" rx="1.5" ry="2" fill="#F59E0B"/>
  <ellipse cx="32" cy="8" rx="1.5" ry="2" fill="#F59E0B"/>
  <ellipse cx="39" cy="10" rx="1.5" ry="2" fill="#F59E0B"/>
  
  <!-- Décorations sur le gâteau -->
  <circle cx="20" cy="27" r="1.5" fill="#F59E0B"/>
  <circle cx="28" cy="26" r="1.5" fill="#EF4444"/>
  <circle cx="36" cy="27" r="1.5" fill="#10B981"/>
  <circle cx="44" cy="26" r="1.5" fill="#F59E0B"/>
  
  <!-- Cerises sur le dessus -->
  <circle cx="23" cy="24" r="1" fill="#EF4444"/>
  <circle cx="32" cy="23" r="1" fill="#EF4444"/>
  <circle cx="41" cy="24" r="1" fill="#EF4444"/>
  
  <!-- Confettis -->
  <rect x="6" y="18" width="2" height="2" rx="1" fill="#F59E0B" transform="rotate(45 7 19)"/>
  <rect x="52" y="22" width="2" height="2" rx="1" fill="#EF4444" transform="rotate(30 53 23)"/>
  <rect x="8" y="45" width="2" height="2" rx="1" fill="#10B981" transform="rotate(60 9 46)"/>
  <rect x="50" y="42" width="2" height="2" rx="1" fill="#8B5CF6" transform="rotate(15 51 43)"/>
</svg>
